<svg width="50" height="50" viewBox="0 0 50 50" fill="none" xmlns="http://www.w3.org/2000/svg">
<path d="M22.2236 0.123036C20.7614 0.269074 18.507 0.792374 16.8741 1.35219C13.1331 2.64219 10.0867 4.54069 7.28399 7.33976C3.39676 11.2219 1.06929 15.8343 0.155367 21.469C-0.0517892 22.759 -0.0517892 27.2375 0.155367 28.5275C1.53235 36.9855 6.52848 43.825 13.9983 47.4516C19.9449 50.3359 26.5861 50.7861 32.7886 48.7294C36.6881 47.4394 39.7345 45.5531 42.6469 42.6567C46.8387 38.4824 49.3124 33.225 49.8973 27.3105C50.2385 23.8786 49.7146 19.7043 48.5447 16.5402C44.8525 6.50004 35.3233 -0.108192 24.7217 0.00133681C23.9175 0.0135067 22.7964 0.0621866 22.2236 0.123036ZM26.7323 8.52024C28.7552 8.76363 32.2525 9.85892 34.6043 11.0029C36.7855 12.0617 38.0528 13.0839 40.5022 15.81C41.1358 16.5158 42.3178 17.7328 43.1343 18.5239C44.755 20.0816 45.2424 20.7266 45.6202 21.8462C47.2043 26.3978 42.9637 31.9594 38.979 30.5477C38.589 30.4016 38.2478 30.2921 38.2356 30.2921C38.2356 30.2921 38.1869 30.8032 38.1503 31.4117C37.8579 35.7564 36.2006 38.592 33.008 40.1862C32.0575 40.6608 30.2053 41.1963 28.743 41.4397C26.8908 41.7439 23.0401 41.7439 21.1879 41.4397C19.7256 41.1963 17.8734 40.6608 16.9229 40.1862C14.766 39.1031 13.2306 37.3628 12.4629 35.1357C12.1095 34.0648 11.744 31.9715 11.744 30.9006C11.744 30.4503 11.7074 30.2921 11.5977 30.3408C9.52616 31.2048 7.62519 30.7302 5.95575 28.9291C4.15227 26.9819 3.49425 24.1707 4.2985 21.8462C4.70063 20.7144 4.95653 20.3858 7.34492 17.9275C8.58786 16.6619 10.2207 14.9824 10.9763 14.2036C12.4873 12.6458 13.7058 11.7574 15.5337 10.8934C16.7766 10.3092 19.2869 9.40863 21.0538 8.93401C22.2602 8.60542 24.6242 8.26467 25.2091 8.33769C25.4163 8.36203 26.0987 8.44722 26.7323 8.52024Z" fill="#FC9823"/>
<path d="M23.3813 9.89542C20.4811 10.37 18.8604 11.2098 17.4834 12.9501C15.6068 15.311 14.3761 19.2297 13.5231 25.5459C13.0844 28.7587 13.0356 29.5497 13.194 31.2657C13.4621 34.3447 14.047 35.8902 15.5215 37.3628C17.2641 39.1152 19.4575 39.9306 23.2351 40.2105L24.3074 40.2957L24.2708 38.3242L24.2343 36.3527L23.5031 36.0849C22.1262 35.5616 21.2488 34.4664 21.2488 33.2615C21.2488 32.4462 21.5656 31.9715 22.3699 31.5821C24.283 30.6572 27.6585 31.0466 28.4262 32.288C29.2182 33.5536 28.2312 35.4034 26.4277 36.0849L25.6966 36.3527L25.66 38.312C25.6356 39.8333 25.66 40.2714 25.7819 40.2714C26.5861 40.2592 28.9501 39.9793 29.7788 39.7846C31.9234 39.2734 33.1664 38.6406 34.4093 37.4236C35.8107 36.0484 36.4809 34.223 36.749 31.0588C36.883 29.4159 36.883 29.1968 36.554 26.6776C35.5426 18.6699 34.1778 14.5686 31.7285 12.159C30.7049 11.1489 29.5107 10.5404 27.7316 10.1388C26.0743 9.77372 24.6242 9.68853 23.3813 9.89542ZM19.5184 23.477C20.1033 23.8299 20.3958 24.3897 20.3958 25.1564C20.3958 27.566 17.4712 27.8825 17.0569 25.5215C16.7766 23.9638 18.2755 22.7224 19.5184 23.477ZM32.1306 23.55C33.2151 24.3532 33.1176 26.3612 31.9722 26.9454C31.4116 27.2375 30.7049 27.1766 30.2662 26.8115C29.7422 26.3612 29.5351 25.8988 29.5351 25.1564C29.5351 24.4019 29.8275 23.8421 30.4124 23.4648C30.8998 23.1727 31.6675 23.2092 32.1306 23.55Z" fill="#FC9823"/>
<path d="M15.2412 12.6824C13.7668 13.4856 12.8407 14.2401 11.4271 15.7857C10.7082 16.5645 9.28244 18.0249 8.27103 19.035C6.19947 21.0917 5.98012 21.3595 5.65111 22.3331C5.00527 24.1829 5.61455 26.5682 7.08902 28.0651C8.35633 29.3429 9.73331 29.6593 10.9763 28.9535C11.3175 28.7587 11.6465 28.5275 11.683 28.4545C11.7318 28.3815 11.878 27.4322 11.9999 26.3613C12.7919 19.6557 14.0349 15.3719 15.8871 12.8892C16.1552 12.5242 16.3745 12.2199 16.3745 12.1956C16.3745 12.0982 16.1186 12.2077 15.2412 12.6824Z" fill="#FC9823"/>
<path d="M34.1169 12.9744C36.0178 15.737 37.1389 19.6922 37.931 26.3612C38.0528 27.4322 38.1991 28.3814 38.2478 28.4545C38.2844 28.5275 38.6134 28.7587 38.9546 28.9534C40.1853 29.6593 41.5623 29.3428 42.8296 28.0772C44.0116 26.9089 44.5966 25.2903 44.4991 23.55C44.3894 21.9192 44.1091 21.4568 41.7207 19.0958C40.6118 17.9884 39.1374 16.4793 38.455 15.7248C37.7726 14.9824 36.8465 14.094 36.4078 13.7654C35.701 13.2421 33.8366 12.159 33.6294 12.159C33.5929 12.159 33.8122 12.5241 34.1169 12.9744Z" fill="#FC9823"/>
</svg>
